<svg width="133" height="132" viewBox="0 0 133 132" fill="none" xmlns="http://www.w3.org/2000/svg">
<g clip-path="url(#clip0_9_58)">
<path d="M22.5455 45.1407C16.7386 34.5769 16.4918 30.9735 16.0345 26.326C15.5699 21.5915 19.1267 17.4878 23.8811 17.2631C50.4549 16.0088 78.0886 43.8139 90.3702 57.9666H109.903C74.2633 12.7389 28.7008 -12.3691 8.02096 6.13379C-3.91224 16.8208 -0.46439 33.6779 5.13202 46.7865C5.45866 47.5551 5.84337 48.3019 6.25711 49.0269L11.9769 59.0034L22.5455 45.148" fill="white"/>
<path d="M22.5453 86.852C16.7384 97.4158 16.4916 101.019 16.0343 105.667C15.5698 110.401 19.1265 114.505 23.8809 114.73C50.4548 115.984 78.0884 88.1788 90.37 74.0261H109.903C74.2631 119.254 28.7006 144.369 8.02079 125.859C-3.91967 115.172 -0.464555 98.3148 5.13185 85.2062C5.45849 84.4376 5.8432 83.6908 6.25694 82.9658L11.9767 72.9893L22.5453 86.8448" fill="white"/>
<path d="M127.07 48.5991C133.109 35.2657 137.472 17.3211 124.979 6.13375C103.109 -13.4422 53.402 15.7767 17.0435 65.9999H36.0756C36.0756 65.9999 73.4866 15.6607 109.039 17.263C113.808 17.4806 117.43 21.5843 116.966 26.326C116.509 30.9735 114.425 38.0281 108.626 48.5918" fill="#00B3FF"/>
<path d="M127.07 83.4008C133.109 96.7342 137.472 114.679 124.979 125.866C103.109 145.442 53.402 116.223 17.0435 65.9999H36.0756C36.0756 65.9999 73.4866 116.339 109.047 114.73C113.816 114.512 117.438 110.408 116.973 105.667C116.509 100.925 114.433 93.9646 108.633 83.4008" fill="#00B3FF"/>
<path d="M78.7056 74.0188V57.9738H27.0096V74.0188H78.7056Z" fill="#00B3FF"/>
</g>
<defs>
<clipPath id="clip0_9_58">
<rect width="133" height="132" fill="white"/>
</clipPath>
</defs>
</svg>
